<svg xmlns="http://www.w3.org/2000/svg" version="1.1" xmlns:xlink="http://www.w3.org/1999/xlink" xmlns:svgjs="http://svgjs.dev/svgjs" width="2000" height="4186" viewBox="0 0 2000 4186"><g transform="matrix(1,0,0,1,0.610029119771184,1.6947368421051578)"><svg viewBox="0 0 118 247" data-background-color="#000000" preserveAspectRatio="xMidYMid meet" height="4186" width="2000" xmlns="http://www.w3.org/2000/svg" xmlns:xlink="http://www.w3.org/1999/xlink"><g id="tight-bounds" transform="matrix(1,0,0,1,-0.035991718066497924,-0.09999999999999432)"><svg viewBox="0 0 118.07198343613294 247.2" height="247.2" width="118.07198343613294"><g><svg viewBox="0 0 118.07198343613294 247.2" height="247.2" width="118.07198343613294"><g><svg viewBox="0 0 480.85623399460303 1006.7389196334059" height="247.2" width="118.07198343613294"><g><rect width="390.98747181600004" height="22.154981908537728" x="44.934381089301496" y="576.8755599406461" fill="#79c141" opacity="1" stroke-width="0" stroke="transparent" fill-opacity="1" class="rect-qz-0" data-fill-palette-color="secondary" rx="1%" id="qz-0" data-palette-color="#79c141"></rect></g><g transform="matrix(1,0,0,1,45.90698674058507,657.0278766882878)"><svg viewBox="0 0 389.0422605134329 349.71104294511815" height="349.71104294511815" width="389.0422605134329"><g id="textblocktransform"><svg viewBox="0 0 389.0422605134329 349.71104294511815" height="349.71104294511815" width="389.0422605134329" id="textblock"><g><svg viewBox="0 0 389.0422605134329 245.672304" height="245.672304" width="389.0422605134329"><g transform="matrix(1,0,0,1,0,0)"><svg width="389.0422605134329" viewBox="0.5 -33.25 53.05 33.5" height="245.672304" data-palette-color="#eeeae7"><path d="M17.9 0.25L14.25 0.25 4.4-30 0.5-32.2 0.5-33 18.2-33 18.2-32.2 14-30.25 19.45-12.6 19.8-12.6 28.45-33.25 32.1-33.25 40.55-12.6 40.9-12.6 46.4-30.25 42.15-32.2 42.15-33 53.55-33 53.55-32.2 50.2-30.5 40.1 0.25 36.45 0.25 27.6-20.5 27.25-20.5 17.9 0.25Z" opacity="1" transform="matrix(1,0,0,1,0,0)" fill="#eeeae7" class="wordmark-text-0" data-fill-palette-color="primary" id="text-0"></path></svg></g></svg></g><g transform="matrix(1,0,0,1,35.01380344620898,303.669638839104)"><svg viewBox="0 0 319.01465362101493 46.04140410601419" height="46.04140410601419" width="319.01465362101493"><g transform="matrix(1,0,0,1,0,0)"><svg width="319.01465362101493" viewBox="1.1 -35.65 253.23000000000002 36.55" height="46.04140410601419" data-palette-color="#79c141"><path d="M14.75-35.65Q20.1-35.65 24.25-31.75L24.25-31.75 20.2-26.95Q18.95-28.05 17.82-28.6 16.7-29.15 15.45-29.15L15.45-29.15Q12.85-29.15 11.58-26.45 10.3-23.75 10.3-17.45L10.3-17.45Q10.3-11.25 11.6-8.53 12.9-5.8 15.45-5.8L15.45-5.8Q16.85-5.8 17.93-6.4 19-7 20.65-8.35L20.65-8.35 24.55-3.65Q22.7-1.65 20.18-0.38 17.65 0.9 14.6 0.9L14.6 0.9Q8.4 0.9 4.75-3.73 1.1-8.35 1.1-17.45L1.1-17.45Q1.1-23.4 2.83-27.48 4.55-31.55 7.63-33.6 10.7-35.65 14.75-35.65L14.75-35.65ZM39-35.65Q45.6-35.65 49.05-31.1 52.5-26.55 52.5-17.4L52.5-17.4Q52.5-8.35 49.05-3.73 45.6 0.9 39 0.9L39 0.9Q32.4 0.9 28.97-3.68 25.55-8.25 25.55-17.4L25.55-17.4Q25.55-26.4 29-31.03 32.45-35.65 39-35.65L39-35.65ZM39-29.25Q37.45-29.25 36.52-28.13 35.6-27 35.17-24.43 34.75-21.85 34.75-17.4L34.75-17.4Q34.75-12.85 35.17-10.25 35.6-7.65 36.52-6.55 37.45-5.45 39-5.45L39-5.45Q40.65-5.45 41.57-6.55 42.5-7.65 42.9-10.23 43.3-12.8 43.3-17.4L43.3-17.4Q43.3-21.85 42.87-24.43 42.45-27 41.52-28.13 40.6-29.25 39-29.25L39-29.25ZM64.9-34.75Q69.45-34.75 72.75-33.43 76.05-32.1 78.09-28.3 80.15-24.5 80.15-17.5L80.15-17.5Q80.15-7.8 76.17-3.9 72.2 0 65.34 0L65.34 0 55.45 0 55.45-34.75 64.9-34.75ZM65.95-28.45L64.3-28.45 64.3-6.35 65.84-6.35Q67.7-6.35 68.82-7.33 69.95-8.3 70.52-10.73 71.09-13.15 71.09-17.5L71.09-17.5Q71.09-21.85 70.52-24.25 69.95-26.65 68.82-27.55 67.7-28.45 65.95-28.45L65.95-28.45ZM83.09-34.75L102.19-34.75 101.24-28.5 91.94-28.5 91.94-20.7 100.14-20.7 100.14-14.55 91.94-14.55 91.94-6.3 101.89-6.3 101.89 0 83.09 0 83.09-34.75ZM118.64-12.4L104.49-12.4 104.49-18.9 118.64-18.9 118.64-12.4ZM134.89-35.65Q141.49-35.65 144.94-31.1 148.39-26.55 148.39-17.4L148.39-17.4Q148.39-8.35 144.94-3.73 141.49 0.9 134.89 0.9L134.89 0.9Q128.29 0.9 124.86-3.68 121.44-8.25 121.44-17.4L121.44-17.4Q121.44-26.4 124.89-31.03 128.34-35.65 134.89-35.65L134.89-35.65ZM134.89-29.25Q133.34-29.25 132.41-28.13 131.49-27 131.06-24.43 130.64-21.85 130.64-17.4L130.64-17.4Q130.64-12.85 131.06-10.25 131.49-7.65 132.41-6.55 133.34-5.45 134.89-5.45L134.89-5.45Q136.54-5.45 137.46-6.55 138.39-7.65 138.79-10.23 139.19-12.8 139.19-17.4L139.19-17.4Q139.19-21.85 138.76-24.43 138.34-27 137.41-28.13 136.49-29.25 134.89-29.25L134.89-29.25ZM167.09 0L161.74-12.95 160.19-12.95 160.19 0 151.34 0 151.34-34.75 161.29-34.75Q174.49-34.75 174.49-24L174.49-24Q174.49-21 173.29-18.53 172.09-16.05 169.49-14.6L169.49-14.6 176.44 0 167.09 0ZM160.19-28.6L160.19-19 161.44-19Q163.64-19 164.56-20.18 165.49-21.35 165.49-24L165.49-24Q165.49-26.35 164.46-27.48 163.44-28.6 161.29-28.6L161.29-28.6 160.19-28.6ZM191.43-12.4L177.28-12.4 177.28-18.9 191.43-18.9 191.43-12.4ZM204.43-34.75Q208.98-34.75 212.28-33.43 215.58-32.1 217.63-28.3 219.68-24.5 219.68-17.5L219.68-17.5Q219.68-7.8 215.71-3.9 211.73 0 204.88 0L204.88 0 194.98 0 194.98-34.75 204.43-34.75ZM205.48-28.45L203.83-28.45 203.83-6.35 205.38-6.35Q207.23-6.35 208.36-7.33 209.48-8.3 210.06-10.73 210.63-13.15 210.63-17.5L210.63-17.5Q210.63-21.85 210.06-24.25 209.48-26.65 208.36-27.55 207.23-28.45 205.48-28.45L205.48-28.45ZM222.63-34.75L231.48-34.75 231.48 0 222.63 0 222.63-34.75ZM235.23-34.75L254.33-34.75 253.38-28.5 244.08-28.5 244.08-20.7 252.28-20.7 252.28-14.55 244.08-14.55 244.08-6.3 254.03-6.3 254.03 0 235.23 0 235.23-34.75Z" opacity="1" transform="matrix(1,0,0,1,0,0)" fill="#79c141" class="slogan-text-1" data-fill-palette-color="secondary" id="text-1"></path></svg></g></svg></g></svg></g></svg></g><g><svg viewBox="0 0 480.85623399460303 518.8782251015421" height="518.8782251015421" width="480.85623399460303"><g><svg xmlns="http://www.w3.org/2000/svg" xmlns:xlink="http://www.w3.org/1999/xlink" version="1.1" x="8" y="0" viewBox="10.618179522493447 8.079 43.7587025140418 48.844000000000015" enable-background="new 7.5 7.5 50 50" xml:space="preserve" height="518.8782251015421" width="464.85623399460303" class="icon-icon-0" data-fill-palette-color="accent" id="icon-0"><path d="M54.169 24.292C53.964 20.635 50.95 9.898 40.165 8.589c-2.185-0.265-4.517-0.51-6.767-0.51-6.475 0-10.934 2.104-14.909 7.037-4.512 5.597-3.354 10.369-2.589 13.526 0.29 1.192 0.539 2.222 0.289 2.723-1.054 2.108-4.642 7.231-4.684 7.29-0.853 1.263-1.083 2.182-0.723 2.892 0.547 1.079 2.261 1.146 3.918 1.209 1.139 0.045 2.43 0.095 2.81 0.494 0.8 0.842 0.894 3.489 0.962 5.423 0.048 1.354 0.086 2.423 0.305 3.035 0.133 0.373 0.49 0.816 1.437 0.816 0.627 0 1.401-0.175 2.297-0.377 1.395-0.314 3.11-0.644 4.203-0.372 0.479 0.12 0.832 0.379 1.078 0.792 0.793 1.335 0.193 3.707 0.188 3.73-0.039 0.15-0.006 0.31 0.089 0.432 0.094 0.122 0.24 0.194 0.395 0.194H49.03c0.156 0 0.301-0.082 0.395-0.206 0.095-0.124 0.123-0.294 0.082-0.444-0.005-0.02-0.13-0.497-0.13-2.648 0-0.576-0.08-1.139-0.165-1.733-0.281-1.98-0.632-4.444 1.667-9.582 0.509-1.136 0.956-2.056 1.345-2.857C54.195 35.392 54.725 34.301 54.169 24.292zM51.324 39.014c-0.393 0.809-0.845 1.738-1.357 2.886-2.418 5.4-2.028 8.135-1.744 10.131 0.083 0.583 0.154 1.087 0.154 1.593 0 1.143 0.033 1.855 0.074 2.299H29.076c0.152-0.918 0.301-2.646-0.422-3.864-0.384-0.647-0.954-1.069-1.696-1.255-1.304-0.326-3.157 0.027-4.665 0.367-1.259 0.285-2.474 0.479-2.573 0.2-0.167-0.467-0.206-1.568-0.247-2.734-0.083-2.325-0.176-4.96-1.237-6.077-0.659-0.694-2.037-0.747-3.496-0.804-1.24-0.048-2.784-0.107-3.065-0.662-0.098-0.192-0.142-0.693 0.654-1.872 0.149-0.213 3.668-5.236 4.754-7.41 0.414-0.829 0.138-1.966-0.211-3.405-0.72-2.967-1.808-7.45 2.395-12.663 3.766-4.671 7.992-6.665 14.131-6.665 2.197 0 4.492 0.242 6.646 0.503 10.28 1.248 12.97 11.965 13.127 14.766C53.712 34.098 53.254 35.041 51.324 39.014z" fill="#f5fcfd" data-fill-palette-color="accent"></path><path d="M30.679 22.078c-0.191-0.197-0.507-0.205-0.707-0.013l-7.084 6.833c-0.002 0.002-0.003 0.005-0.005 0.008-0.002 0.002-0.005 0.002-0.007 0.005-0.022 0.023-0.033 0.052-0.049 0.077-0.018 0.028-0.041 0.053-0.053 0.083-0.013 0.031-0.014 0.063-0.021 0.095-0.006 0.031-0.016 0.061-0.016 0.092s0.01 0.061 0.016 0.092c0.006 0.032 0.008 0.064 0.021 0.095 0.012 0.03 0.035 0.055 0.053 0.082 0.017 0.026 0.027 0.055 0.049 0.078 0.002 0.002 0.005 0.003 0.007 0.005 0.002 0.002 0.003 0.005 0.005 0.008l7.084 6.833c0.097 0.094 0.222 0.141 0.347 0.141 0.131 0 0.262-0.051 0.36-0.153 0.192-0.198 0.186-0.515-0.013-0.706l-6.711-6.474 6.711-6.473C30.865 22.593 30.871 22.277 30.679 22.078z" fill="#f5fcfd" data-fill-palette-color="accent"></path><path d="M46.627 29.164c-0.006-0.031-0.008-0.063-0.02-0.093-0.013-0.03-0.035-0.056-0.054-0.083-0.017-0.025-0.027-0.054-0.049-0.076-0.002-0.002-0.005-0.003-0.008-0.005-0.002-0.002-0.003-0.005-0.005-0.007l-7.084-6.833c-0.197-0.192-0.514-0.185-0.707 0.013-0.191 0.199-0.186 0.515 0.014 0.707l6.711 6.473-6.711 6.474c-0.199 0.191-0.205 0.508-0.013 0.706 0.098 0.103 0.229 0.153 0.359 0.153 0.125 0 0.25-0.047 0.347-0.141l7.084-6.833c0.002-0.002 0.003-0.004 0.004-0.006 0.003-0.003 0.007-0.003 0.01-0.006 0.025-0.026 0.039-0.06 0.057-0.09 0.015-0.023 0.034-0.044 0.045-0.069 0.013-0.033 0.016-0.068 0.021-0.103 0.005-0.029 0.015-0.057 0.015-0.085C46.644 29.226 46.634 29.195 46.627 29.164z" fill="#f5fcfd" data-fill-palette-color="accent"></path><path d="M37.897 20.17c-0.257-0.087-0.546 0.045-0.638 0.305l-6.082 17.233c-0.092 0.26 0.045 0.546 0.305 0.638 0.055 0.02 0.111 0.028 0.167 0.028 0.206 0 0.399-0.128 0.472-0.334l6.082-17.232C38.295 20.548 38.158 20.263 37.897 20.17z" fill="#f5fcfd" data-fill-palette-color="accent"></path></svg></g></svg></g><g></g></svg></g></svg></g><defs></defs></svg><rect width="118.07198343613294" height="247.2" fill="none" stroke="none" visibility="hidden"></rect></g></svg></g></svg>